<svg width="28" height="28" viewBox="0 0 28 28" fill="none" xmlns="http://www.w3.org/2000/svg">
<g clip-path="url(#clip0_29_39)">
<path d="M24.0597 7.08477H20.6389C20.6389 5.29051 19.9181 3.56973 18.635 2.30099C17.352 1.03226 15.6118 0.319489 13.7973 0.319489C11.9828 0.319489 10.2426 1.03226 8.95958 2.30099C7.67653 3.56973 6.95572 5.29051 6.95572 7.08477H3.53493C2.62768 7.08477 1.75759 7.44115 1.11606 8.07552C0.47454 8.70989 0.114136 9.57028 0.114136 10.4674L0.114136 21.7429C0.115946 23.2376 0.717201 24.6705 1.78601 25.7274C2.85483 26.7843 4.30393 27.3788 5.81546 27.3806H21.7792C23.2907 27.3788 24.7398 26.7843 25.8086 25.7274C26.8774 24.6705 27.4787 23.2376 27.4805 21.7429V10.4674C27.4805 9.57028 27.1201 8.70989 26.4786 8.07552C25.837 7.44115 24.9669 7.08477 24.0597 7.08477ZM13.7973 2.57458C15.007 2.57458 16.1671 3.04976 17.0225 3.89559C17.8778 4.74141 18.3584 5.88859 18.3584 7.08477H9.23625C9.23625 5.88859 9.71679 4.74141 10.5722 3.89559C11.4275 3.04976 12.5876 2.57458 13.7973 2.57458ZM25.2 21.7429C25.2 22.64 24.8396 23.5004 24.198 24.1348C23.5565 24.7691 22.6864 25.1255 21.7792 25.1255H5.81546C4.90821 25.1255 4.03812 24.7691 3.39659 24.1348C2.75507 23.5004 2.39467 22.64 2.39467 21.7429V10.4674C2.39467 10.1684 2.5148 9.88157 2.72864 9.67011C2.94248 9.45866 3.23251 9.33986 3.53493 9.33986H6.95572V11.595C6.95572 11.894 7.07586 12.1808 7.2897 12.3923C7.50354 12.6037 7.79357 12.7225 8.09599 12.7225C8.39841 12.7225 8.68844 12.6037 8.90228 12.3923C9.11612 12.1808 9.23625 11.894 9.23625 11.595V9.33986H18.3584V11.595C18.3584 11.894 18.4785 12.1808 18.6923 12.3923C18.9062 12.6037 19.1962 12.7225 19.4986 12.7225C19.8011 12.7225 20.0911 12.6037 20.3049 12.3923C20.5188 12.1808 20.6389 11.894 20.6389 11.595V9.33986H24.0597C24.3621 9.33986 24.6521 9.45866 24.866 9.67011C25.0798 9.88157 25.2 10.1684 25.2 10.4674V21.7429Z" fill="black"/>
</g>
<defs>
<clipPath id="clip0_29_39">
<rect width="27.3664" height="27.0611" fill="white" transform="translate(0.114136 0.319489)"/>
</clipPath>
</defs>
</svg>
