<svg width="28" height="28" viewBox="0 0 28 28" fill="none" xmlns="http://www.w3.org/2000/svg">
<g clip-path="url(#clip0_29_37)">
<path d="M20.0068 2.48099C18.7228 2.50074 17.4668 2.85517 16.3656 3.50849C15.2645 4.16181 14.3572 5.09089 13.7353 6.20189C13.1135 5.09089 12.2062 4.16181 11.105 3.50849C10.0039 2.85517 8.74787 2.50074 7.46387 2.48099C5.41703 2.56893 3.48857 3.45435 2.09982 4.94381C0.711064 6.43328 -0.0251026 8.40571 0.052151 10.4302C0.052151 15.5571 5.50946 21.1565 10.0865 24.953C11.1084 25.8022 12.4005 26.2677 13.7353 26.2677C15.0702 26.2677 16.3623 25.8022 17.3842 24.953C21.9612 21.1565 27.4185 15.5571 27.4185 10.4302C27.4958 8.40571 26.7596 6.43328 25.3708 4.94381C23.9821 3.45435 22.0536 2.56893 20.0068 2.48099ZM15.9189 23.2279C15.3077 23.7368 14.5344 24.0159 13.7353 24.0159C12.9363 24.0159 12.1629 23.7368 11.5517 23.2279C5.69304 18.367 2.33268 13.7035 2.33268 10.4302C2.25473 9.00353 2.75044 7.60426 3.71168 6.53756C4.67292 5.47087 6.0217 4.8233 7.46387 4.73608C8.90604 4.8233 10.2548 5.47087 11.2161 6.53756C12.1773 7.60426 12.673 9.00353 12.5951 10.4302C12.5951 10.7292 12.7152 11.016 12.929 11.2275C13.1429 11.4389 13.4329 11.5577 13.7353 11.5577C14.0377 11.5577 14.3278 11.4389 14.5416 11.2275C14.7555 11.016 14.8756 10.7292 14.8756 10.4302C14.7976 9.00353 15.2933 7.60426 16.2546 6.53756C17.2158 5.47087 18.5646 4.8233 20.0068 4.73608C21.449 4.8233 22.7977 5.47087 23.759 6.53756C24.7202 7.60426 25.2159 9.00353 25.138 10.4302C25.138 13.7035 21.7776 18.367 15.9189 23.2233V23.2279Z" fill="black"/>
</g>
<defs>
<clipPath id="clip0_29_37">
<rect width="27.3664" height="27.0611" fill="white" transform="translate(0.0523682 0.319489)"/>
</clipPath>
</defs>
</svg>
