<svg width="22" height="28" viewBox="0 0 22 28" fill="none" xmlns="http://www.w3.org/2000/svg">
<path d="M10.6798 14.0711C12.088 14.0711 13.4645 13.6584 14.6353 12.8854C15.8061 12.1123 16.7187 11.0135 17.2576 9.72791C17.7964 8.44233 17.9374 7.02772 17.6627 5.66297C17.388 4.29821 16.7099 3.0446 15.7142 2.06066C14.7185 1.07672 13.4499 0.406656 12.0688 0.135189C10.6877 -0.136278 9.25619 0.0030484 7.95523 0.535551C6.65427 1.06805 5.54233 1.96981 4.76001 3.1268C3.97768 4.28379 3.56012 5.64403 3.56012 7.03553C3.562 8.9009 4.31272 10.6893 5.64751 12.0083C6.98231 13.3274 8.79214 14.0692 10.6798 14.0711ZM10.6798 2.34518C11.6186 2.34518 12.5363 2.62026 13.3168 3.13565C14.0974 3.65103 14.7057 4.38356 15.065 5.24061C15.4242 6.09766 15.5182 7.04073 15.3351 7.95057C15.1519 8.86041 14.6999 9.69615 14.0361 10.3521C13.3723 11.0081 12.5265 11.4548 11.6058 11.6358C10.6851 11.8167 9.73073 11.7238 8.86343 11.3688C7.99612 11.0138 7.25483 10.4127 6.73328 9.64135C6.21173 8.87002 5.93335 7.96319 5.93335 7.03553C5.93335 5.79157 6.43343 4.59856 7.32356 3.71895C8.2137 2.83934 9.42098 2.34518 10.6798 2.34518Z" fill="black"/>
<path d="M10.6796 15.3351C7.84812 15.3382 5.13356 16.451 3.13144 18.4295C1.12931 20.4079 0.0031408 23.0904 0 25.8883C0 26.1993 0.125018 26.4976 0.347552 26.7175C0.570086 26.9374 0.871907 27.0609 1.18662 27.0609C1.50133 27.0609 1.80315 26.9374 2.02568 26.7175C2.24822 26.4976 2.37323 26.1993 2.37323 25.8883C2.37323 23.7114 3.24836 21.6236 4.8061 20.0843C6.36384 18.545 8.47658 17.6802 10.6796 17.6802C12.8825 17.6802 14.9953 18.545 16.553 20.0843C18.1107 21.6236 18.9859 23.7114 18.9859 25.8883C18.9859 26.1993 19.1109 26.4976 19.3334 26.7175C19.556 26.9374 19.8578 27.0609 20.1725 27.0609C20.4872 27.0609 20.789 26.9374 21.0116 26.7175C21.2341 26.4976 21.3591 26.1993 21.3591 25.8883C21.356 23.0904 20.2298 20.4079 18.2277 18.4295C16.2255 16.451 13.511 15.3382 10.6796 15.3351Z" fill="black"/>
</svg>
